<svg height="511pt" viewBox="1 -36 511.9993 511" width="511pt" xmlns="http://www.w3.org/2000/svg"><path d="m334.574219 405.015625c19.136719 0 34.703125-15.570313 34.703125-34.707031 0-19.136719-15.566406-34.703125-34.703125-34.703125s-34.707031 15.566406-34.707031 34.703125c0 19.136718 15.570312 34.707031 34.707031 34.707031zm0-49.410156c8.109375 0 14.707031 6.597656 14.707031 14.707031 0 8.105469-6.597656 14.703125-14.707031 14.703125s-14.707031-6.597656-14.707031-14.703125c0-8.113281 6.597656-14.707031 14.707031-14.707031zm0 0"/><path d="m41.582031 370.308594c0 16.96875 13.804688 30.773437 30.773438 30.773437h176.308593c16.96875 0 30.773438-13.804687 30.773438-30.773437s-13.804688-30.773438-30.773438-30.773438h-176.308593c-16.96875 0-30.773438 13.804688-30.773438 30.773438zm30.773438-10.773438h176.308593c5.941407 0 10.777344 4.832032 10.777344 10.773438s-4.835937 10.777344-10.777344 10.777344h-176.308593c-5.941407 0-10.777344-4.835938-10.777344-10.777344s4.835937-10.773438 10.777344-10.773438zm0 0"/><path d="m81.375 320.230469c5.523438 0 10-4.476563 10-10 0-5.523438-4.476562-10-10-10h-.027344c-5.519531 0-9.984375 4.476562-9.984375 10 0 5.523437 4.488281 10 10.011719 10zm0 0"/><path d="m409.285156 150.445312 36.980469-66.980468c2.667969-4.835938.914063-10.917969-3.921875-13.585938-4.832031-2.671875-10.917969-.914062-13.585938 3.921875l-36.976562 66.980469c-2.09375 3.789062-6.914062 5.042969-10.585938 2.785156l-18.078124-11.125c-4.703126-2.894531-10.863282-1.429687-13.757813 3.273438-2.894531 4.707031-1.425781 10.863281 3.277344 13.757812l18.078125 11.125c13.445312 8.277344 30.972656 3.613282 38.570312-10.152344zm0 0"/><path d="m397.578125 229.113281h.113281c63.03125 0 114.308594-51.277343 114.308594-114.304687 0-63.585938-51.890625-115.207032-115.933594-114.296875-61.320312.851562-111.398437 50.558593-112.65625 111.902343-.285156 13.851563 1.902344 27.410157 6.355469 40.148438h-193.988281c-24.546875 0-46.789063 15.460938-55.339844 38.472656-33.539062 90.289063-36.800781 107.097656-38.222656 117.867188-.003906.003906-.003906.011718-.003906.015625-.003907.015625-.003907.03125-.007813.046875-.164063 1.261718-.320313 2.523437-.46875 3.785156-.011719.097656-.023437.199219-.035156.300781-2.667969 23.113281-1.296875 35.269531-1.667969 86.492188 0 22.523437 18.324219 40.847656 40.847656 40.847656h339.207032c22.523437 0 40.851562-18.324219 40.851562-40.847656-.445312-51.0625 1.222656-64.832031-2.175781-90.566407 0-.019531-.003907-.039062-.007813-.058593 0-.003907 0-.011719-.003906-.019531-2.113281-15.988282-24.011719-79.625-24.011719-79.625.933594-.09375 1.875-.160157 2.824219-.160157zm-338.394531-31.113281c5.652344-15.214844 20.359375-25.4375 36.59375-25.4375h203.246094c12.0625 20.550781 20.917968 21.609375 21.53125 36.3125l1.1875 28.527344c.695312 16.695312 19.714843 25.875 33.21875 16.089844l21.625-15.664063s19.476562 56.464844 20.5625 62.402344h-275.800782c-5.523437 0-10 4.476562-10 10 0 5.523437 4.476563 10 10 10h278.5625c1.363282 14.511719 1.003906 19.742187 1.027344 79.308593 0 11.496094-9.355469 20.851563-20.847656 20.851563h-339.210938c-11.496094 0-20.851562-9.355469-20.851562-20.851563.023437-58.929687-.339844-64.765624 1.027344-79.308593h20.296874c5.523438 0 10-4.476563 10-10 0-5.523438-4.476562-10-10-10h-17.535156c1.085938-5.9375 35.367188-102.230469 35.367188-102.230469zm310.460937 20.160156c-35.492187 25.710938-24.269531 17.84375-26.53125 19.210938-.460937.285156-1.355469.007812-1.390625-.804688l-1.1875-28.527344c-.445312-10.734374-4.710937-21.226562-12.144531-29.28125-.011719-.011718-.023437-.023437-.035156-.039062-16.058594-17.410156-25.464844-40.757812-24.949219-65.894531 1.035156-50.539063 42.375-91.613281 92.941406-92.316407.453125-.007812.902344-.007812 1.351563-.007812 51.722656 0 94.300781 41.8125 94.300781 94.304688 0 52.003906-42.304688 94.308593-94.304688 94.308593h-.113281c-.007812 0-.015625 0-.027343 0-10.292969 0-19.953126 3.285157-27.910157 9.046875zm0 0"/></svg>